<!DOCTYPE svg PUBLIC "-//W3C//DTD SVG 1.1//EN" "http://www.w3.org/Graphics/SVG/1.1/DTD/svg11.dtd">
<!-- Uploaded to: SVG Repo, www.svgrepo.com, Transformed by: SVG Repo Mixer Tools -->
<svg height="127px" width="127px" version="1.1" id="Layer_1" xmlns="http://www.w3.org/2000/svg" xmlns:xlink="http://www.w3.org/1999/xlink" viewBox="0 0 511.996 511.996" xml:space="preserve" fill="#000000">
<g id="SVGRepo_bgCarrier" stroke-width="0"/>
<g id="SVGRepo_tracerCarrier" stroke-linecap="round" stroke-linejoin="round"/>
<g id="SVGRepo_iconCarrier"> <path style="fill:#965353;" d="M339.791,6.276L6.277,339.789c-12.5,12.499-5.75,39.514,15.093,60.342 c20.812,20.827,47.842,27.577,60.326,15.077L415.21,81.696L339.791,6.276z"/> <g> <path style="fill:#FFD2A6;" d="M69.494,421.114c4.796-0.75,8.984-2.672,12.203-5.906l51.795-51.779V212.566l-63.998,64.005V421.114 z"/> <polygon style="fill:#FFD2A6;" points="197.49,299.431 261.488,235.425 261.488,84.57 197.49,148.568 "/> <polygon style="fill:#FFD2A6;" points="324.713,21.353 324.713,172.208 388.711,108.21 388.711,55.196 339.791,6.276 "/> </g> <path style="fill:#F4BE8E;" d="M415.21,81.696c-12.499,12.499-39.499,5.75-60.326-15.078 c-20.827-20.827-27.593-47.842-15.093-60.342c12.499-12.5,39.514-5.734,60.342,15.078C420.96,42.181,427.709,69.196,415.21,81.696z"/> <path style="fill:#7F4545;" d="M369.961,36.447c-4.172,4.156-4.172,10.922,0,15.078c4.172,4.171,10.922,4.171,15.078,0 c4.172-4.156,4.172-10.922,0-15.078C380.883,32.275,374.133,32.275,369.961,36.447z"/> <path style="fill:#FFD2A6;" d="M430.303,96.789L96.774,430.302c-12.484,12.499-5.734,39.515,15.093,60.326 c20.828,20.827,47.842,27.593,60.342,15.093l333.514-333.513L430.303,96.789z"/> <g> <path style="fill:#965353;" d="M159.991,511.627c4.812-0.75,9-2.688,12.218-5.906l51.78-51.795V303.087l-63.998,63.998V511.627z"/> <polygon style="fill:#965353;" points="287.995,389.928 351.993,325.93 351.993,175.083 287.995,239.081 "/> <polygon style="fill:#965353;" points="415.21,111.867 415.21,262.705 479.208,198.707 479.208,145.694 430.303,96.789 "/> </g> <path style="fill:#7F4545;" d="M505.723,172.208c-12.5,12.5-39.514,5.734-60.342-15.094c-20.828-20.827-27.577-47.842-15.078-60.326 c12.5-12.5,39.5-5.75,60.326,15.078C511.457,132.694,518.223,159.708,505.723,172.208z"/> <path style="fill:#F4BE8E;" d="M460.475,126.959c-4.172,4.156-4.172,10.906,0,15.078c4.156,4.172,10.906,4.172,15.077,0 c4.172-4.172,4.172-10.922,0-15.078C471.381,122.788,464.631,122.788,460.475,126.959z"/> </g>
</svg>